<mxfile host="Electron" agent="Mozilla/5.0 (Windows NT 10.0; Win64; x64) AppleWebKit/537.36 (KHTML, like Gecko) draw.io/28.0.4 Chrome/138.0.7204.97 Electron/37.2.1 Safari/537.36" version="28.0.4">
  <diagram name="Page-1" id="zrXwAzsM7pu9NRFQfIzE">
    <mxGraphModel dx="868" dy="522" grid="1" gridSize="10" guides="1" tooltips="1" connect="1" arrows="1" fold="1" page="1" pageScale="1" pageWidth="827" pageHeight="1169" math="0" shadow="0">
      <root>
        <mxCell id="0" />
        <mxCell id="1" parent="0" />
        <mxCell id="GhF35VcygRvo94S6cIeY-1" value="Data Warehouse (Medallion Architecture)" style="swimlane;whiteSpace=wrap;html=1;fillColor=#99FFCC;" vertex="1" parent="1">
          <mxGeometry x="180" y="80" width="740" height="690" as="geometry" />
        </mxCell>
        <mxCell id="GhF35VcygRvo94S6cIeY-2" value="&lt;b&gt;&lt;font style=&quot;font-size: 18px;&quot;&gt;Gold Layer&lt;/font&gt;&lt;/b&gt;" style="rounded=1;whiteSpace=wrap;html=1;align=center;fillColor=#FFD700;" vertex="1" parent="GhF35VcygRvo94S6cIeY-1">
          <mxGeometry x="560" y="30" width="170" height="50" as="geometry" />
        </mxCell>
        <mxCell id="GhF35VcygRvo94S6cIeY-6" value="&lt;b&gt;&lt;font style=&quot;font-size: 18px;&quot;&gt;Silver Layer&lt;/font&gt;&lt;/b&gt;" style="rounded=1;whiteSpace=wrap;html=1;fillColor=#C0C0C0;" vertex="1" parent="GhF35VcygRvo94S6cIeY-1">
          <mxGeometry x="380" y="30" width="170" height="50" as="geometry" />
        </mxCell>
        <mxCell id="GhF35VcygRvo94S6cIeY-8" value="&lt;b&gt;&lt;font style=&quot;font-size: 14px;&quot;&gt;Definition&lt;/font&gt;&lt;/b&gt;" style="rounded=0;whiteSpace=wrap;html=1;fillColor=#99FFFF;" vertex="1" parent="GhF35VcygRvo94S6cIeY-1">
          <mxGeometry x="10" y="100" width="110" height="40" as="geometry" />
        </mxCell>
        <mxCell id="GhF35VcygRvo94S6cIeY-9" value="&lt;b&gt;&lt;font style=&quot;font-size: 14px;&quot;&gt;Objective&lt;/font&gt;&lt;/b&gt;" style="rounded=0;whiteSpace=wrap;html=1;fillColor=#99FFFF;" vertex="1" parent="GhF35VcygRvo94S6cIeY-1">
          <mxGeometry x="10" y="180" width="110" height="40" as="geometry" />
        </mxCell>
        <mxCell id="GhF35VcygRvo94S6cIeY-10" value="&lt;b&gt;Raw, unprocessed data as-is from sources&lt;/b&gt;" style="rounded=0;whiteSpace=wrap;html=1;" vertex="1" parent="GhF35VcygRvo94S6cIeY-1">
          <mxGeometry x="200" y="100" width="170" height="50" as="geometry" />
        </mxCell>
        <mxCell id="GhF35VcygRvo94S6cIeY-32" value="&lt;b&gt;Clean &amp;amp; Standardised Data&lt;/b&gt;" style="rounded=0;whiteSpace=wrap;html=1;" vertex="1" parent="GhF35VcygRvo94S6cIeY-1">
          <mxGeometry x="380" y="100" width="170" height="50" as="geometry" />
        </mxCell>
        <mxCell id="GhF35VcygRvo94S6cIeY-33" value="&lt;b&gt;Business- Ready Data&lt;/b&gt;" style="rounded=0;whiteSpace=wrap;html=1;" vertex="1" parent="GhF35VcygRvo94S6cIeY-1">
          <mxGeometry x="560" y="100" width="170" height="50" as="geometry" />
        </mxCell>
        <mxCell id="GhF35VcygRvo94S6cIeY-34" value="&lt;b&gt;(Intermediate Layer)&lt;/b&gt;&lt;div&gt;&lt;b&gt;Prepare Data for Analysis&lt;/b&gt;&lt;/div&gt;" style="rounded=0;whiteSpace=wrap;html=1;" vertex="1" parent="GhF35VcygRvo94S6cIeY-1">
          <mxGeometry x="380" y="180" width="170" height="50" as="geometry" />
        </mxCell>
        <mxCell id="GhF35VcygRvo94S6cIeY-35" value="&lt;b&gt;&lt;font style=&quot;font-size: 12px;&quot;&gt;Traceability &amp;amp; Debugging&lt;/font&gt;&lt;/b&gt;" style="rounded=0;whiteSpace=wrap;html=1;" vertex="1" parent="GhF35VcygRvo94S6cIeY-1">
          <mxGeometry x="200" y="180" width="170" height="50" as="geometry" />
        </mxCell>
        <mxCell id="GhF35VcygRvo94S6cIeY-47" value="&lt;b&gt;Provide Data to be consumed for Reporting &amp;amp; Analysis&lt;/b&gt;" style="rounded=0;whiteSpace=wrap;html=1;" vertex="1" parent="GhF35VcygRvo94S6cIeY-1">
          <mxGeometry x="560" y="180" width="170" height="50" as="geometry" />
        </mxCell>
        <mxCell id="GhF35VcygRvo94S6cIeY-5" value="&lt;b&gt;&lt;font style=&quot;font-size: 18px;&quot;&gt;Bronze Layer&lt;/font&gt;&lt;/b&gt;" style="rounded=1;whiteSpace=wrap;html=1;align=center;fillColor=light-dark(#CD7F32,#121212);" vertex="1" parent="GhF35VcygRvo94S6cIeY-1">
          <mxGeometry x="200" y="30" width="170" height="50" as="geometry" />
        </mxCell>
        <mxCell id="GhF35VcygRvo94S6cIeY-49" value="&lt;b&gt;&lt;font style=&quot;font-size: 14px;&quot;&gt;Object Type&lt;/font&gt;&lt;/b&gt;" style="rounded=0;whiteSpace=wrap;html=1;fillColor=#99FFFF;" vertex="1" parent="GhF35VcygRvo94S6cIeY-1">
          <mxGeometry x="10" y="260" width="110" height="40" as="geometry" />
        </mxCell>
        <mxCell id="GhF35VcygRvo94S6cIeY-50" value="&lt;b&gt;&lt;font style=&quot;font-size: 12px;&quot;&gt;Tables&lt;/font&gt;&lt;/b&gt;" style="rounded=0;whiteSpace=wrap;html=1;" vertex="1" parent="GhF35VcygRvo94S6cIeY-1">
          <mxGeometry x="200" y="260" width="170" height="50" as="geometry" />
        </mxCell>
        <mxCell id="GhF35VcygRvo94S6cIeY-51" value="&lt;b&gt;Tables&lt;/b&gt;" style="rounded=0;whiteSpace=wrap;html=1;" vertex="1" parent="GhF35VcygRvo94S6cIeY-1">
          <mxGeometry x="380" y="260" width="170" height="50" as="geometry" />
        </mxCell>
        <mxCell id="GhF35VcygRvo94S6cIeY-52" value="&lt;b&gt;&lt;font style=&quot;font-size: 12px;&quot;&gt;Views&lt;/font&gt;&lt;/b&gt;" style="rounded=0;whiteSpace=wrap;html=1;" vertex="1" parent="GhF35VcygRvo94S6cIeY-1">
          <mxGeometry x="560" y="260" width="170" height="50" as="geometry" />
        </mxCell>
        <mxCell id="GhF35VcygRvo94S6cIeY-53" value="&lt;b&gt;&lt;font style=&quot;font-size: 14px;&quot;&gt;Load Method&lt;/font&gt;&lt;/b&gt;" style="rounded=0;whiteSpace=wrap;html=1;fillColor=#99FFFF;" vertex="1" parent="GhF35VcygRvo94S6cIeY-1">
          <mxGeometry x="10" y="340" width="110" height="40" as="geometry" />
        </mxCell>
        <mxCell id="GhF35VcygRvo94S6cIeY-54" value="&lt;b&gt;&lt;font style=&quot;font-size: 12px;&quot;&gt;Full Load&lt;/font&gt;&lt;/b&gt;&lt;div&gt;&lt;font style=&quot;font-size: 12px;&quot;&gt;&lt;b&gt;(&lt;/b&gt;Truncate &amp;amp; Insert&lt;b&gt;)&lt;/b&gt;&lt;/font&gt;&lt;/div&gt;" style="rounded=0;whiteSpace=wrap;html=1;" vertex="1" parent="GhF35VcygRvo94S6cIeY-1">
          <mxGeometry x="200" y="340" width="170" height="50" as="geometry" />
        </mxCell>
        <mxCell id="GhF35VcygRvo94S6cIeY-55" value="&lt;b&gt;Full Load&lt;/b&gt;&lt;div&gt;&lt;b&gt;(&lt;/b&gt;Truncate &amp;amp; Insert&lt;b&gt;)&lt;/b&gt;&lt;/div&gt;" style="rounded=0;whiteSpace=wrap;html=1;" vertex="1" parent="GhF35VcygRvo94S6cIeY-1">
          <mxGeometry x="380" y="340" width="170" height="50" as="geometry" />
        </mxCell>
        <mxCell id="GhF35VcygRvo94S6cIeY-56" value="&lt;b&gt;&lt;font style=&quot;font-size: 12px;&quot;&gt;None&lt;/font&gt;&lt;/b&gt;" style="rounded=0;whiteSpace=wrap;html=1;" vertex="1" parent="GhF35VcygRvo94S6cIeY-1">
          <mxGeometry x="560" y="340" width="170" height="50" as="geometry" />
        </mxCell>
        <mxCell id="GhF35VcygRvo94S6cIeY-57" value="" style="html=1;verticalLabelPosition=bottom;align=center;labelBackgroundColor=#ffffff;verticalAlign=top;strokeWidth=2;strokeColor=#FFFFFF;shadow=0;dashed=0;shape=mxgraph.ios7.icons.data;fillColor=#C0C0C0;" vertex="1" parent="GhF35VcygRvo94S6cIeY-1">
          <mxGeometry x="390" y="40.45" width="14" height="29.55" as="geometry" />
        </mxCell>
        <mxCell id="GhF35VcygRvo94S6cIeY-59" value="" style="html=1;verticalLabelPosition=bottom;align=center;labelBackgroundColor=#ffffff;verticalAlign=top;strokeWidth=2;strokeColor=#FFFFFF;shadow=0;dashed=0;shape=mxgraph.ios7.icons.data;fillColor=#CD7F32;" vertex="1" parent="GhF35VcygRvo94S6cIeY-1">
          <mxGeometry x="210" y="40.45" width="14" height="29.55" as="geometry" />
        </mxCell>
        <mxCell id="GhF35VcygRvo94S6cIeY-60" value="" style="html=1;verticalLabelPosition=bottom;align=center;labelBackgroundColor=#ffffff;verticalAlign=top;strokeWidth=2;strokeColor=#FFFFFF;shadow=0;dashed=0;shape=mxgraph.ios7.icons.data;fillColor=#FFD700;" vertex="1" parent="GhF35VcygRvo94S6cIeY-1">
          <mxGeometry x="570" y="40.45" width="14" height="29.55" as="geometry" />
        </mxCell>
        <mxCell id="GhF35VcygRvo94S6cIeY-61" value="&lt;b&gt;&lt;font style=&quot;font-size: 14px;&quot;&gt;Data Transfromation&lt;/font&gt;&lt;/b&gt;" style="rounded=0;whiteSpace=wrap;html=1;fillColor=#99FFFF;" vertex="1" parent="GhF35VcygRvo94S6cIeY-1">
          <mxGeometry x="10" y="420" width="110" height="80" as="geometry" />
        </mxCell>
        <mxCell id="GhF35VcygRvo94S6cIeY-62" value="&lt;ul&gt;&lt;li&gt;&lt;b&gt;&lt;font style=&quot;font-size: 12px;&quot;&gt;Data Integration&lt;/font&gt;&lt;/b&gt;&lt;/li&gt;&lt;li&gt;&lt;b&gt;&lt;font style=&quot;font-size: 12px;&quot;&gt;Data Aggregtion&lt;/font&gt;&lt;/b&gt;&lt;/li&gt;&lt;li&gt;&lt;b&gt;&lt;font style=&quot;font-size: 12px;&quot;&gt;Business Logic &amp;amp; Rules&lt;/font&gt;&lt;/b&gt;&lt;/li&gt;&lt;/ul&gt;" style="rounded=0;whiteSpace=wrap;html=1;align=left;" vertex="1" parent="GhF35VcygRvo94S6cIeY-1">
          <mxGeometry x="560" y="420" width="170" height="90" as="geometry" />
        </mxCell>
        <mxCell id="GhF35VcygRvo94S6cIeY-63" value="&lt;pre&gt;&lt;ul style=&quot;line-height: 130%;&quot;&gt;&lt;li&gt;&lt;b style=&quot;background-color: transparent; color: light-dark(rgb(0, 0, 0), rgb(255, 255, 255)); white-space: normal;&quot;&gt;&lt;font face=&quot;Helvetica&quot; style=&quot;font-size: 10px; line-height: 130%;&quot;&gt;Data Cleaning&lt;/font&gt;&lt;/b&gt;&lt;/li&gt;&lt;li&gt;&lt;b style=&quot;background-color: transparent; color: light-dark(rgb(0, 0, 0), rgb(255, 255, 255)); white-space: normal;&quot;&gt;&lt;font face=&quot;Helvetica&quot; style=&quot;font-size: 10px; line-height: 130%;&quot;&gt;Data Standardisation&lt;/font&gt;&lt;/b&gt;&lt;/li&gt;&lt;li&gt;&lt;b style=&quot;background-color: transparent; color: light-dark(rgb(0, 0, 0), rgb(255, 255, 255)); white-space: normal;&quot;&gt;&lt;font face=&quot;Helvetica&quot; style=&quot;font-size: 10px; line-height: 130%;&quot;&gt;Data Normalisation&lt;/font&gt;&lt;/b&gt;&lt;/li&gt;&lt;li&gt;&lt;b style=&quot;background-color: transparent; color: light-dark(rgb(0, 0, 0), rgb(255, 255, 255)); white-space: normal;&quot;&gt;&lt;font face=&quot;Helvetica&quot; style=&quot;font-size: 10px; line-height: 130%;&quot;&gt;Derived Columns&lt;/font&gt;&lt;/b&gt;&lt;/li&gt;&lt;li&gt;&lt;b style=&quot;background-color: transparent; color: light-dark(rgb(0, 0, 0), rgb(255, 255, 255)); white-space: normal;&quot;&gt;&lt;font face=&quot;Helvetica&quot; style=&quot;font-size: 10px; line-height: 130%;&quot;&gt;Data Enrichment&lt;/font&gt;&lt;/b&gt;&lt;/li&gt;&lt;/ul&gt;&lt;/pre&gt;" style="rounded=0;whiteSpace=wrap;html=1;align=left;" vertex="1" parent="GhF35VcygRvo94S6cIeY-1">
          <mxGeometry x="380" y="420" width="170" height="90" as="geometry" />
        </mxCell>
        <mxCell id="GhF35VcygRvo94S6cIeY-64" value="&lt;b&gt;&lt;font style=&quot;font-size: 12px;&quot;&gt;None(As-is)&lt;/font&gt;&lt;/b&gt;" style="rounded=0;whiteSpace=wrap;html=1;" vertex="1" parent="GhF35VcygRvo94S6cIeY-1">
          <mxGeometry x="200" y="420" width="170" height="90" as="geometry" />
        </mxCell>
        <mxCell id="GhF35VcygRvo94S6cIeY-65" value="&lt;b&gt;&lt;font style=&quot;font-size: 14px;&quot;&gt;Data Transfromation&lt;/font&gt;&lt;/b&gt;" style="rounded=0;whiteSpace=wrap;html=1;fillColor=#99FFFF;" vertex="1" parent="GhF35VcygRvo94S6cIeY-1">
          <mxGeometry x="10" y="540" width="110" height="40" as="geometry" />
        </mxCell>
        <mxCell id="GhF35VcygRvo94S6cIeY-66" value="&lt;ul&gt;&lt;li&gt;&lt;b&gt;Start Schema&lt;/b&gt;&lt;/li&gt;&lt;li&gt;&lt;b&gt;Aggregated Object&lt;/b&gt;&lt;/li&gt;&lt;li&gt;&lt;b&gt;Flat Tables&lt;/b&gt;&lt;/li&gt;&lt;/ul&gt;" style="rounded=0;whiteSpace=wrap;html=1;align=left;" vertex="1" parent="GhF35VcygRvo94S6cIeY-1">
          <mxGeometry x="560" y="535" width="170" height="50" as="geometry" />
        </mxCell>
        <mxCell id="GhF35VcygRvo94S6cIeY-67" value="&lt;b&gt;None(As-is)&lt;/b&gt;" style="rounded=0;whiteSpace=wrap;html=1;" vertex="1" parent="GhF35VcygRvo94S6cIeY-1">
          <mxGeometry x="380" y="535" width="170" height="50" as="geometry" />
        </mxCell>
        <mxCell id="GhF35VcygRvo94S6cIeY-68" value="&lt;b&gt;None(As-is)&lt;/b&gt;" style="rounded=0;whiteSpace=wrap;html=1;" vertex="1" parent="GhF35VcygRvo94S6cIeY-1">
          <mxGeometry x="200" y="535" width="170" height="50" as="geometry" />
        </mxCell>
        <mxCell id="GhF35VcygRvo94S6cIeY-69" value="&lt;b&gt;&lt;font style=&quot;font-size: 14px;&quot;&gt;Data Transfromation&lt;/font&gt;&lt;/b&gt;" style="rounded=0;whiteSpace=wrap;html=1;fillColor=#99FFFF;" vertex="1" parent="GhF35VcygRvo94S6cIeY-1">
          <mxGeometry x="10" y="620" width="110" height="40" as="geometry" />
        </mxCell>
        <mxCell id="GhF35VcygRvo94S6cIeY-70" value="&lt;b&gt;Data Engineers&lt;/b&gt;" style="rounded=0;whiteSpace=wrap;html=1;" vertex="1" parent="GhF35VcygRvo94S6cIeY-1">
          <mxGeometry x="200" y="620" width="170" height="50" as="geometry" />
        </mxCell>
        <mxCell id="GhF35VcygRvo94S6cIeY-71" value="&lt;ul&gt;&lt;li&gt;&lt;b&gt;Data Engineers&lt;/b&gt;&lt;/li&gt;&lt;li&gt;&lt;b&gt;Data Analyst&lt;/b&gt;&lt;/li&gt;&lt;/ul&gt;" style="rounded=0;whiteSpace=wrap;html=1;align=left;" vertex="1" parent="GhF35VcygRvo94S6cIeY-1">
          <mxGeometry x="380" y="620" width="170" height="50" as="geometry" />
        </mxCell>
        <mxCell id="GhF35VcygRvo94S6cIeY-72" value="&lt;ul&gt;&lt;li&gt;&lt;b&gt;Business Analyst&lt;/b&gt;&lt;/li&gt;&lt;li&gt;&lt;b&gt;Business users&lt;/b&gt;&lt;/li&gt;&lt;/ul&gt;" style="rounded=0;whiteSpace=wrap;html=1;align=left;" vertex="1" parent="GhF35VcygRvo94S6cIeY-1">
          <mxGeometry x="560" y="620" width="170" height="50" as="geometry" />
        </mxCell>
      </root>
    </mxGraphModel>
  </diagram>
</mxfile>
